<svg xmlns="http://www.w3.org/2000/svg" xml:space="preserve" width="462.028" height="462.028" style="shape-rendering:geometricPrecision;text-rendering:geometricPrecision;image-rendering:optimizeQuality;fill-rule:evenodd;clip-rule:evenodd" viewBox="0 0 1587.29 1587.29"><path d="M1148.29 850.41c20.2-20.2 20.2-53.04 0-73.24-20.2-20.2-53.04-20.2-73.24 0l-282.79 282.79c-35.59 35.59-82.36 53.41-128.95 53.37-46.88.04-93.65-17.78-129.24-53.37-35.45-35.45-53.18-82.36-53.18-129.06l-.11-3.41c.77-45.49 18.62-90.98 53.33-125.69l387.88-387.88c12.65-12.65 29.51-19.02 46.22-19.02 16.71 0 33.58 6.38 46.22 19.02 12.76 12.76 19.21 29.54 19.17 46.07-.15 16.86-6.52 33.72-19.17 46.37L626.55 894.24c-20.2 20.2-20.2 53.04 0 73.24 20.2 20.2 53.04 20.2 73.24 0l387.88-387.88c32.84-32.84 49.3-76.2 49.3-119.46-.15-43.33-16.53-86.69-49.3-119.46-32.84-32.84-76.2-49.3-119.46-49.3-43.25 0-86.61 16.46-119.46 49.3L460.87 728.56c-54.36 54.36-82.25 126.02-83.32 197.97l-.18 4.36c0 73.24 27.86 146.69 83.46 202.3 55.46 55.46 128.66 83.28 202.04 83.35 73.86-.04 147.13-27.86 202.62-83.35l282.79-282.79z" style="fill:#fff;fill-rule:nonzero"/><path d="M0 0h1587.29v1587.29H0z" style="fill:none"/></svg>