<svg xmlns="http://www.w3.org/2000/svg" xml:space="preserve" width="1102.859" height="288.12mm" style="shape-rendering:geometricPrecision;text-rendering:geometricPrecision;image-rendering:optimizeQuality;fill-rule:evenodd;clip-rule:evenodd" viewBox="0 0 1036.74 1023.67"><defs><style>.fil0{fill:#f5f5f5}</style></defs><g id="Layer_x0020_1"><g id="_1895910084784"><path d="M0 35.59v952.65c0 19.52 15.34 35.43 34.15 35.43h264.26c18.81 0 34.15-15.92 34.15-35.43V35.59c0-19.52-15.34-35.43-34.15-35.43H34.15C15.34.16 0 16.08 0 35.59zM684.39 511.84l345.46-451.51c17.21-22.49-.74-60.32-21.61-60.32H708.19c-20.86 0-50.06 15.92-64.99 35.43L481.54 246.73l-79.05 103.32c-8.1 10.59-12 22.18-12 35.66V638c0 13.48 3.9 25.06 12 35.66l79.05 103.32L643.2 988.27c14.93 19.51 44.13 35.43 64.99 35.43h300.05c20.86 0 38.81-37.83 21.61-60.32L684.39 511.87z" class="fil0"/></g></g></svg>