<svg xmlns="http://www.w3.org/2000/svg" xml:space="preserve" width="720.896" height="720.896" style="shape-rendering:geometricPrecision;text-rendering:geometricPrecision;image-rendering:optimizeQuality;fill-rule:evenodd;clip-rule:evenodd" viewBox="0 0 326.26 326.26"><defs><style>.fil1{fill:#303036;fill-rule:nonzero}</style></defs><g id="Layer_x0020_1"><g id="_1895860038304"><circle cx="163.13" cy="163.13" r="163.13" style="fill:none"/><path d="M37.99 171.67c-.08-.84-.3-1.6-.68-2.28-.38-.68-.88-1.27-1.5-1.76a5.99 5.99 0 0 0-2.21-1.07c-.85-.23-1.78-.29-2.8-.2-1.02.09-1.93.33-2.72.7-.79.37-1.45.86-1.98 1.46s-.91 1.26-1.16 2c-.25.74-.33 1.52-.25 2.34.08.84.3 1.6.68 2.29.37.68.88 1.27 1.5 1.76.63.49 1.36.85 2.21 1.07.85.22 1.78.29 2.8.2 1.02-.09 1.93-.33 2.72-.7.79-.37 1.45-.86 1.98-1.46s.91-1.26 1.16-2c.24-.74.33-1.52.25-2.34zm5.45-.53c.17 1.82.02 3.52-.44 5.1-.46 1.58-1.18 3-2.16 4.24-.98 1.24-2.18 2.24-3.6 3-1.42.76-3 1.22-4.75 1.38-1.75.16-3.39 0-4.93-.49-1.53-.48-2.89-1.25-4.08-2.29s-2.16-2.3-2.9-3.78c-.74-1.48-1.19-3.12-1.36-4.94-.16-1.8-.02-3.49.44-5.09.46-1.6 1.18-3 2.16-4.22a11.39 11.39 0 0 1 3.6-2.96c1.42-.76 3-1.21 4.75-1.38 1.75-.16 3.39 0 4.92.49 1.53.49 2.89 1.24 4.08 2.26 1.19 1.02 2.15 2.27 2.9 3.76.74 1.49 1.19 3.13 1.36 4.92zm1.49 21.3-23.28 2.14-.6-6.49 8.71-.8-.55-6.02 5.52-.51.55 6.02 9.05-.83.6 6.49zm15.93 34.75-20.79 10.7-2.98-5.79 12.21-6.28-16.62-2.3-2.84-5.52 20.79-10.7 2.98 5.79-12.18 6.27 16.58 2.29 2.86 5.55zm15.57 12.35-4.51 4.32.11-2.01 3.49 3.64-3.78 3.63-6.73-7.01 7.23-6.94 4.19 4.36zm9.83 17.14-16.87 16.19-4.51-4.7 13.09-12.56-6.22-6.48-13.09 12.56-4.51-4.7 16.87-16.19 15.24 15.88zm28.18 21.54-3.68 3.62-10.25-5.05.63-5.13 13.31 6.55zm7.07-1.58-19.59 16.42-5.84-2.88 1.04-25.55 6.17 3.04-1.64 21.64-2.34-1.15 16.15-14.5 6.05 2.98zm23.22 5.38-3.02 19.37-1.23-1.68 8.55 1.33-.81 5.18-20.59-3.21.81-5.18 8.51 1.33-1.68 1.22 3.02-19.37 6.44 1zm27.65 10.31 9.91-.91.5 5.45-9.91.91-.5-5.46zm8.61-9.95 6.59-.6 2.14 23.28-6.59.61-2.14-23.28zm-6.84 24.11-6.58.6-2.14-23.28 6.59-.6 2.14 23.28zm40.51-28.7-11.35 4.53-1.89-4.75 17.43-6.96 8.67 21.71-17.03 6.8-1.89-4.75 10.95-4.37-4.88-12.22zm3.85 8.39-10.08 4.03-1.83-4.59 10.08-4.03 1.83 4.59zm29.7-34.2 1.32 4.87c-1.1.22-2.17.56-3.19 1.02-1.02.47-1.95 1-2.78 1.6-.83.6-1.52 1.23-2.06 1.9-.54.66-.88 1.31-1.01 1.92-.14.62-.01 1.18.39 1.69.44.56.99.78 1.66.67.66-.11 1.37-.46 2.12-1.06l4.7-3.7 3 3.8-4.28 3.37c-.7.55-1.13 1.12-1.3 1.7-.17.58-.06 1.11.31 1.58.36.45.81.69 1.36.7.54.01 1.14-.15 1.79-.48a9.56 9.56 0 0 0 1.98-1.37c.67-.59 1.3-1.28 1.88-2.1.58-.81 1.08-1.68 1.49-2.59l4.58 2.69c-.76 1.59-1.73 3.04-2.92 4.34-1.19 1.3-2.47 2.4-3.86 3.3-1.39.9-2.79 1.54-4.19 1.92-1.4.38-2.7.45-3.9.2-1.2-.25-2.19-.87-2.98-1.86-.69-.87-1.07-1.84-1.13-2.89-.06-1.05.15-2.09.66-3.11.5-1.02 1.28-1.94 2.33-2.77l.74 1.21c-1.21.95-2.43 1.57-3.66 1.86-1.23.29-2.38.27-3.45-.07-1.07-.33-1.98-.97-2.72-1.92-.7-.89-1.09-1.86-1.18-2.92-.08-1.06.1-2.14.55-3.26.45-1.12 1.11-2.21 1.98-3.28.87-1.07 1.92-2.08 3.13-3.02s2.55-1.75 4.02-2.42c1.47-.67 3.01-1.18 4.62-1.51zm18.75-17.63-6.99 10.03-4.19-2.92 10.73-15.4 19.18 13.37-10.48 15.05-4.19-2.92 6.74-9.67-10.8-7.52zm7.83 4.89-6.21 8.91-4.06-2.83 6.21-8.91 4.06 2.83zm11.14-35.72 3.87-1.69-2.31 6.2c-.48 1.29-.56 2.36-.23 3.21.33.85.99 1.46 1.99 1.83 1.02.38 1.93.36 2.74-.07.8-.43 1.44-1.29 1.92-2.58l2.31-6.2 1.82 3.82-12.12-4.51zm-5.46-9.09 21.91 8.16-3.73 10.02c-.75 2-1.71 3.61-2.9 4.82-1.19 1.21-2.54 1.98-4.05 2.32-1.52.34-3.11.2-4.78-.42-1.65-.61-2.93-1.54-3.85-2.79-.91-1.24-1.43-2.71-1.55-4.41-.12-1.7.2-3.55.94-5.55l2.45-6.57 1.67 3.76-8.42-3.13 2.31-6.2zm4.23-37.29 23.35 1.29-1.21 21.91-23.35-1.29.36-6.54 19.58 1.09-1.55 1.39.65-11.77 1.39 1.51-19.58-1.08.36-6.5zM260.49 83.21c.71.86 1.5 1.35 2.38 1.48.88.13 1.74-.16 2.59-.85.86-.71 1.26-1.46 1.19-2.26-.06-.8-.45-1.63-1.16-2.49l-2.61-3.17-5.01 4.11 2.61 3.17zm9.47-6.1c1.81 2.2 2.72 4.31 2.74 6.33.02 2.02-.96 3.83-2.92 5.45-2.12 1.74-4.27 2.38-6.48 1.91-2.2-.47-4.27-1.88-6.21-4.24l-7.02-8.54 18.06-14.85 4.14 5.03-5.76 4.73 3.44 4.18zm-41.27-16.03 10.93-16.28.4 2.04-7.18-4.82 2.92-4.36 17.31 11.61-2.92 4.36-7.16-4.8 2.04-.4-10.92 16.28-5.41-3.63zm-34.11-19.81 3.03-4.19 10.95 3.27.24 5.16-14.21-4.24zm-6.71 2.74 16.58-19.45 6.24 1.86 3.24 25.37-6.59-1.97-1.99-21.61 2.5.75-13.51 16.99-6.47-1.93zm-19.69-2.14-.28-23.38 6.51-.08.28 23.38-6.51.08zm.8-8.29c-1.09.42-2.11.73-3.08.96-.97.22-1.89.34-2.79.35-3.27.04-5.78-.71-7.53-2.25-1.74-1.54-2.63-3.8-2.67-6.78l-.09-7.18 6.51-.08.08 6.45c.02 1.51.4 2.64 1.16 3.38.76.74 1.86 1.1 3.3 1.08.93-.01 1.82-.12 2.65-.32.83-.2 1.57-.5 2.21-.91l.23 5.31zm-48 11.13.16-5.16 10.9-3.43 3.09 4.14-14.14 4.46zm-4.02 6.03 2.81-25.4 6.21-1.96 16.91 19.18-6.56 2.07-13.77-16.78 2.49-.78-1.65 21.64-6.44 2.03zm-22-.74-5.44 2.86-.59-13.74 5.76-3.88.27 14.76zm-6.82 7.04-2.98-4.43 7.04-4.74 2.98 4.43-7.04 4.74zm1.12 10.04-13.05-19.4 5.46-3.67 13.05 19.4-5.46 3.67zm12.36-8.32-11.67-5.55 2.65-5.57 15.2 6.97-6.18 4.16zM72.7 83.63c-1.18 1.43-2.49 2.56-3.94 3.39-1.45.84-2.97 1.35-4.54 1.54-1.57.19-3.13.06-4.69-.38-1.55-.44-3.02-1.23-4.39-2.36-1.37-1.13-2.43-2.42-3.16-3.86s-1.16-2.95-1.27-4.53c-.11-1.58.1-3.16.65-4.75.54-1.59 1.4-3.09 2.58-4.52 1.37-1.67 2.89-2.92 4.56-3.75 1.67-.83 3.41-1.24 5.23-1.2l.26 5.67c-1.17.02-2.22.23-3.15.62-.93.4-1.76 1.03-2.46 1.89-.61.74-1.05 1.52-1.32 2.33-.27.82-.36 1.63-.26 2.45.09.81.36 1.61.79 2.38.43.77 1.03 1.48 1.8 2.12a7.47 7.47 0 0 0 2.42 1.37c.84.28 1.67.38 2.49.32.82-.06 1.6-.3 2.35-.72s1.43-1 2.04-1.74c.71-.86 1.17-1.79 1.38-2.78.21-.99.22-2.07.01-3.22l5.62-.83c.36 1.77.3 3.55-.2 5.36-.49 1.8-1.42 3.54-2.8 5.21z" class="fil1"/></g></g></svg>