<svg xmlns="http://www.w3.org/2000/svg" xml:space="preserve" width="720.896" height="720.896" style="shape-rendering:geometricPrecision;text-rendering:geometricPrecision;image-rendering:optimizeQuality;fill-rule:evenodd;clip-rule:evenodd" viewBox="0 0 340.15 340.15"><defs><style>.fil1{fill:#303036;fill-rule:nonzero}</style></defs><g id="Layer_x0020_1"><g id="_1895860012624"><circle cx="170.08" cy="170.08" r="170.08" style="fill:none"/><path d="M166.56 149.24c0-1.94 1.57-3.52 3.52-3.52 1.94 0 3.52 1.57 3.52 3.52v36.97c0 1.94-1.57 3.52-3.52 3.52-1.94 0-3.52-1.57-3.52-3.52v-36.97z" class="fil1"/><path d="M152.1 173.2a3.519 3.519 0 0 1 0-4.97 3.519 3.519 0 0 1 4.97 0l15.49 15.49a3.519 3.519 0 0 1 0 4.97 3.519 3.519 0 0 1-4.97 0L152.1 173.2z" class="fil1"/><path d="M183.08 168.23a3.519 3.519 0 0 1 4.97 0 3.519 3.519 0 0 1 0 4.97l-15.49 15.49a3.519 3.519 0 0 1-4.97 0 3.519 3.519 0 0 1 0-4.97l15.49-15.49z" class="fil1"/><path d="M139.84 111.12h43.5c1.01 0 1.92.43 2.56 1.11l29.3 29.3a3.5 3.5 0 0 1 1.03 2.48v68.76c0 4.39-1.8 8.37-4.68 11.26-2.89 2.89-6.87 4.68-11.26 4.68h-60.46c-4.39 0-8.37-1.79-11.26-4.68-2.89-2.89-4.68-6.87-4.68-11.26v-85.72c0-4.39 1.79-8.37 4.68-11.26 2.89-2.89 6.87-4.68 11.26-4.68zm42.05 7.03h-42.05c-2.45 0-4.68 1-6.29 2.62a8.891 8.891 0 0 0-2.62 6.29v85.72c0 2.45 1 4.68 2.62 6.29a8.891 8.891 0 0 0 6.29 2.62h60.46c2.45 0 4.68-1 6.29-2.62a8.891 8.891 0 0 0 2.62-6.29v-67.31l-27.32-27.32z" class="fil1"/><path d="M212.73 147.54h-16.96c-4.39 0-8.37-1.79-11.26-4.68-2.89-2.89-4.68-6.87-4.68-11.26v-16.96c0-1.94 1.57-3.52 3.52-3.52 1.01 0 1.92.43 2.56 1.11l29.3 29.3a3.519 3.519 0 0 1 0 4.97 3.5 3.5 0 0 1-2.48 1.03zm-16.96-7.03h8.48l-17.39-17.39v8.48c0 2.45 1 4.68 2.62 6.29a8.891 8.891 0 0 0 6.29 2.62zM188.56 196.8c1.94 0 3.52 1.57 3.52 3.52 0 1.94-1.57 3.52-3.52 3.52h-36.97c-1.94 0-3.52-1.57-3.52-3.52 0-1.94 1.57-3.52 3.52-3.52h36.97z" class="fil1"/></g></g></svg>