<svg xmlns="http://www.w3.org/2000/svg" xml:space="preserve" width="2981.057" height="514.968" style="shape-rendering:geometricPrecision;text-rendering:geometricPrecision;image-rendering:optimizeQuality;fill-rule:evenodd;clip-rule:evenodd" viewBox="0 0 37959.43 6557.4"><defs><style>.fil0{fill:#303036}.fil2{fill:#e62e59}.fil1{fill:#303036;fill-rule:nonzero}</style></defs><g id="Layer_x0020_1"><g id="_1770028987456"><path d="M0 227.65v6073.74c0 124.42 97.8 225.91 217.71 225.91h1684.83c119.91 0 217.71-101.48 217.71-225.91V227.65c0-124.42-97.8-225.91-217.71-225.91H217.71C97.8 1.74 0 103.22 0 227.65zM4363.4 3264.02 6565.91 385.35c109.7-143.37-4.75-384.6-137.77-384.6H4515.16C4382.14.75 4196 102.24 4100.8 226.66L3070.13 1573.73l-503.99 658.71c-51.66 67.53-76.53 141.39-76.53 227.33v1608.5c0 85.94 24.86 159.8 76.53 227.33l503.99 658.71L4100.8 6301.39c95.19 124.42 281.33 225.91 414.36 225.91h1912.98c133.02 0 247.47-241.22 137.77-384.6L4363.4 3264.02z" class="fil0"/><path d="M23728.49 6299.67V225.9c0-124.43 101.48-225.91 225.91-225.91h1476.99c69.28 0 128.92 27.88 173.35 81.05l2411.99 2886.26V225.9c0-124.43 101.48-225.91 225.91-225.91h1692.31c124.43 0 225.91 101.48 225.91 225.91v6073.77c0 124.43-101.48 225.91-225.91 225.91h-1476.99c-69.28 0-128.92-27.88-173.35-81.05l-2411.99-2886.27v2741.4c0 124.43-101.48 225.91-225.91 225.91h-1692.3c-124.43 0-225.91-101.48-225.91-225.91zM20465.7 6299.67V225.9c0-124.43 101.48-225.91 225.91-225.91h1748.24c124.43 0 225.91 101.48 225.91 225.91v6073.77c0 124.43-101.48 225.91-225.91 225.91h-1748.24c-124.43 0-225.91-101.48-225.91-225.91zM14713.86 6299.67V225.9c0-124.43 101.48-225.91 225.91-225.91h1748.24c124.43 0 225.91 101.48 225.91 225.91v4367.79c0 124.43 101.48 225.91 225.91 225.91h2494.02c124.43 0 225.91 101.48 225.91 225.91v1254.16c0 124.43-101.48 225.91-225.91 225.91h-4694.08c-124.43 0-225.91-101.48-225.91-225.91zM6627.26 6215.27 9286.17 132.82C9322.24 50.34 9399.16 0 9489.18 0h1835.6c90.02 0 166.95 50.34 203.01 132.82l2658.91 6082.45c30.85 70.56 24.56 145.59-17.61 210.04-42.18 64.45-108.38 100.26-185.42 100.26h-1823.1c-93.51 0-170.71-55.82-206.82-142.07l-1546.78-3694.98L8860.19 6383.5c-36.11 86.24-113.31 142.07-206.82 142.07h-1823.1c-77.04 0-143.24-35.81-185.42-100.26-42.17-64.45-48.47-139.49-17.61-210.04z" class="fil1"/><circle cx="10407" cy="5418.5" r="1138.9" class="fil2"/><path d="m30380.67 6215.27 2658.91-6082.45C33075.65 50.34 33152.57 0 33242.59 0h1835.6c90.02 0 166.95 50.34 203.01 132.82l2658.91 6082.45c30.85 70.56 24.56 145.59-17.61 210.04-42.18 64.45-108.38 100.26-185.42 100.26h-1823.1c-93.51 0-170.71-55.82-206.82-142.07l-1546.78-3694.98L32613.6 6383.5c-36.11 86.24-113.31 142.07-206.82 142.07h-1823.1c-77.04 0-143.24-35.81-185.42-100.26-42.17-64.45-48.47-139.49-17.61-210.04z" class="fil1"/><circle cx="34160.4" cy="5418.5" r="1138.9" class="fil2"/></g></g></svg>