<svg xmlns="http://www.w3.org/2000/svg" xml:space="preserve" width="2104.929" height="2554.473" style="shape-rendering:geometricPrecision;text-rendering:geometricPrecision;image-rendering:optimizeQuality;fill-rule:evenodd;clip-rule:evenodd" viewBox="0 0 11958.23 14512.11"><path d="M5979.11 8087.01c1164.16 0 2107.9-943.74 2107.9-2107.9s-943.74-2107.9-2107.9-2107.9-2107.9 943.74-2107.9 2107.9 943.74 2107.9 2107.9 2107.9zm0 433.72c1403.7 0 2541.62-1137.93 2541.62-2541.62 0-1403.7-1137.92-2541.62-2541.62-2541.62-1403.7 0-2541.62 1137.93-2541.62 2541.62 0 1403.7 1137.92 2541.62 2541.62 2541.62zm5979.11-2541.62C11958.22 2676.94 9281.28 0 5979.11 0 2676.93 0 0 2676.94 0 5979.11c0 2376.8 1733.4 4087.97 2886.29 4990.03 635.96 497.59 2683.56 2022.83 3090.88 3542.97 407.32-1520.13 2454.92-3045.37 3090.88-3542.97 1152.89-902.06 2886.29-2613.23 2886.29-4990.03h3.9z" style="fill:#2b2b2b"/></svg>