<svg width="24" height="24" viewBox="0 0 24 24" fill="none" xmlns="http://www.w3.org/2000/svg">
<path d="M21 10.4C21 5.5 17.1 1.5 12.25 1.5C7.4 1.5 3.5 5.5 3.5 10.4C3.5 12.85 4.5 15.1 6.05 16.7C6.2 16.85 6.35 16.9 6.55 16.9C6.95 16.9 7.25 16.6 7.25 16.2C7.25 16 7.15 15.8 7.05 15.7C5.75 14.35 4.9 12.5 4.9 10.45C4.9 6.35 8.2 3 12.25 3C16.3 3 19.6 6.35 19.6 10.45C19.6 12.5 18.8 14.35 17.45 15.7L11.25 21.95L12.25 23L18.45 16.7C20 15.1 21 12.85 21 10.4Z" fill="#D9272E"/>
<path d="M16.3001 12.1L14.1001 6.5L12.2501 9.8L10.4501 6.5L8.2501 12.1H7.6001V12.95H10.9001V12.1H10.4001L10.9001 10.7L12.2501 13.05L13.6501 10.7L14.1501 12.1H13.6501V12.95H16.9501V12.1" fill="#D9272E"/>
</svg>
