<svg xmlns="http://www.w3.org/2000/svg" xml:space="preserve" width="338.272" height="338.272" style="shape-rendering:geometricPrecision;text-rendering:geometricPrecision;image-rendering:optimizeQuality;fill-rule:evenodd;clip-rule:evenodd" viewBox="0 0 4310.33 4310.33"><circle cx="2155.17" cy="2155.17" r="2155.17" style="fill:none"/><path d="M436.79 2436.46c-20.48-125.42 64.59-243.81 190.01-264.28 125.42-20.48 243.81 64.59 264.28 190.01 52.2 317.96 218.44 591.13 451.63 781.11 233.12 189.96 534.3 297.5 856.42 284.4 351.28-14.28 663.54-169.6 884.33-409.11 220.79-239.51 350.28-563.39 335.99-914.66-14.28-351.28-169.6-663.57-409.11-884.36-239.55-220.79-563.39-350.24-914.66-335.96-127.06 5.17-234.27-93.66-239.44-220.73-5.17-127.06 93.67-234.27 220.73-239.44 478.27-19.45 919.22 156.85 1245.47 457.57 326.21 300.72 537.73 725.93 557.19 1204.2 19.45 478.27-156.88 919.25-457.6 1245.47s-725.9 537.74-1204.17 557.19c-436.63 17.76-846.34-129.26-1164.97-388.89-318.48-259.49-545.24-631.11-616.1-1062.52z" style="fill:#fff;fill-rule:nonzero"/></svg>