<svg xmlns="http://www.w3.org/2000/svg" xml:space="preserve" width="291.747" height="291.747" style="shape-rendering:geometricPrecision;text-rendering:geometricPrecision;image-rendering:optimizeQuality;fill-rule:evenodd;clip-rule:evenodd" viewBox="0 0 1107.06 1107.06"><defs><style>.fil0{fill:#2b2b2b;fill-rule:nonzero}</style></defs><g id="Layer_x0020_1"><g id="_1787544433200"><path d="M8.45 49.34c-11.26-11.26-11.26-29.63 0-40.89 11.27-11.26 29.63-11.26 40.89 0l1049.27 1049.27c11.26 11.26 11.26 29.63 0 40.89-11.27 11.26-29.63 11.26-40.89 0L8.45 49.34z" class="fil0"/><path d="M1057.72 8.45c11.26-11.26 29.63-11.26 40.89 0 11.26 11.27 11.26 29.63 0 40.89L49.34 1098.61c-11.26 11.26-29.63 11.26-40.89 0-11.26-11.27-11.26-29.63 0-40.89L1057.72 8.45z" class="fil0"/></g></g></svg>